<svg width="512" height="512" xmlns="http://www.w3.org/2000/svg">
 <metadata>image/svg+xml</metadata>
 <defs>
  <linearGradient y2="1" x2="0.75" y1="0" x1="0.25" id="svg_6">
   <stop stop-color="#ffffff" offset="0"/>
   <stop stop-color="#000000" offset="1"/>
  </linearGradient>
  <linearGradient y2="1" x2="0.5" y1="0" x1="0.5" id="svg_7">
   <stop stop-color="#ffffff" offset="0"/>
   <stop stop-color="#000000" offset="1"/>
  </linearGradient>
 </defs>
 <g>
  <rect fill="#99cc33" stroke-width="1px" stroke-dasharray="null" x="57" y="57" width="398" height="398" id="svg_1" rx="20" ry="20"/>
  <path d="m452.74478,135.70483c-47.62714,-40.067 -70.16107,-75.1092 -70.16107,-75.1092c-87.95416,63.58844 -181.36072,289.37495 -181.36072,289.37495c-43.77444,-75.61069 -87.78804,-96.70003 -87.78804,-96.70003c-19.78696,32.4417 -53.89404,75.67708 -53.89404,75.67708c79.55069,26.28748 146.32253,122.75253 146.32253,122.75253c144.34448,-278.05472 246.88135,-315.99533 246.88135,-315.99533z" stroke-width="1px" fill-rule="evenodd" fill="#ffffff"/>
  <title>Layer 1</title>
  <rect opacity="0.2" id="svg_4" fill="url(#svg_7)" stroke-width="1px" stroke-dasharray="null" x="57" y="57" width="398" height="398" rx="20" ry="20"/>
 </g>
</svg>
