<svg width="512" height="512" xmlns="http://www.w3.org/2000/svg">
 <metadata>image/svg+xml</metadata>
 <defs>
  <linearGradient id="svg_6" x1="0.25" y1="0" x2="0.75" y2="1">
   <stop offset="0" stop-color="#ffffff"/>
   <stop offset="1" stop-color="#000000"/>
  </linearGradient>
  <linearGradient id="svg_7" x1="0.5" y1="0" x2="0.5" y2="1">
   <stop offset="0" stop-color="#ffffff"/>
   <stop offset="1" stop-color="#000000"/>
  </linearGradient>
 </defs>
 <g>
  <rect ry="10" rx="10" id="svg_1" height="398" width="398" y="57" x="57" stroke-dasharray="null" stroke-width="1px" fill="#99cc33"/>
  <path fill="#ffffff" fill-rule="evenodd" stroke-width="1px" d="m452.744781,135.704834c-47.627136,-40.067001 -70.161072,-75.109203 -70.161072,-75.109203c-87.954163,63.588436 -181.360718,289.37495 -181.360718,289.37495c-43.774445,-75.610687 -87.78804,-96.700012 -87.78804,-96.700012c-19.786964,32.441681 -53.894043,75.677063 -53.894043,75.677063c79.55069,26.287476 146.322525,122.752533 146.322525,122.752533c144.344482,-278.054718 246.881348,-315.995331 246.881348,-315.995331z"/>
  <title>Layer 1</title>
  <rect ry="10" rx="10" height="398" width="398" y="57" x="57" stroke-dasharray="null" stroke-width="1px" fill="url(#svg_7)" id="svg_4" opacity="0.2"/>
 </g>
</svg>
